<svg xmlns="http://www.w3.org/2000/svg" xmlns:xlink="http://www.w3.org/1999/xlink" xmlns:fi="http://pattern.flaticon.com/" x="0" y="0" width="1500" height="750" viewBox="0 0 2625 1312.5"><rect x="0px" y="0px" width="100%" height="100%" opacity="1" fill="#06021b"/><defs><g transform="matrix(1 0 0 1 345 82.5)" id="L1_5"/><g transform="matrix(1 0 0 1 82.5 257.5)" id="L1_6"/><g transform="matrix(0.6609841585159302 0 0 0.6609841585159302 321.6090429648275 222.5887215871353)" id="L1_15"><path d="m44.537 15.927-8.169 11.705 11.705-8.169 3.942-3.942-3.536-3.536z" fill="#595959"/><path d="m50.709 7.541h6.5v5h-6.5z" transform="matrix(0.707 -0.707 0.707 0.707 8.704 41.096)" fill="#595959"/><path d="m62.268 1.732a2.5 2.5 0 0 0 -3.536 0l-2.832 2.829 3.539 3.539 2.829-2.828a2.5 2.5 0 0 0 0-3.54z" fill="#595959"/><path d="m48.42 21.66.003-.001z" fill="#595959"/><path d="m42.341 15.577-.001.003z" fill="#595959"/><path d="m48.42 21.66-15.509 10.821a1 1 0 0 1 -1.392-1.392l10.821-15.509-2.508-.4a4 4 0 0 0 -3.452 1.123l-34.5 34.5a3 3 0 0 0 0 4.242l7.07 7.076a3 3 0 0 0 4.242 0l34.5-34.5a4 4 0 0 0 1.123-3.452z" fill="#595959"/></g><g transform="matrix(-0.5199610521121562 0.25998049248634825 -0.25998049248634825 -0.5199610521121562 199.11284452143687 90.37458167146363)" id="L1_16"><path d="M57.162,13.909,54.981,16.09a1,1,0,0,1-1.414-1.414l2.361-2.362c-.425-.516-.86-1.023-1.317-1.51L10.8,54.611c.487.457.994.892,1.51,1.317l2.362-2.361a1,1,0,0,1,1.414,1.414l-2.181,2.181A30.988,30.988,0,0,0,57.162,13.909ZM17.681,50.562,19.8,48.44a1,1,0,0,1,1.415,1.414L19.1,51.976a1,1,0,1,1-1.414-1.414Zm3.8,4.684L19.36,57.367a1,1,0,0,1-1.414-1.414l2.122-2.121a1,1,0,0,1,1.414,1.414Zm1.326-9.811,2.121-2.121a1,1,0,0,1,1.414,1.414l-2.121,2.121a1,1,0,0,1-1.414-1.414Zm3.8,4.685-2.121,2.121a1,1,0,0,1-1.414-1.414l2.121-2.122a1,1,0,1,1,1.414,1.415Zm1.326-9.811,2.121-2.122A1,1,0,0,1,31.47,39.6l-2.122,2.122a1,1,0,1,1-1.414-1.414Zm3.8,4.684-2.122,2.121A1,1,0,0,1,28.2,45.7l2.122-2.121a1,1,0,0,1,1.414,1.414Zm1.326-9.811,2.121-2.121A1,1,0,0,1,36.6,34.475L34.475,36.6a1,1,0,0,1-1.414-1.414Zm3.8,4.685L34.74,41.988a1,1,0,0,1-1.414-1.414l2.121-2.122a1,1,0,0,1,1.414,1.415Zm1.326-9.812,2.121-2.121a1,1,0,1,1,1.415,1.414L39.6,31.47a1,1,0,0,1-1.414-1.415Zm3.8,4.685-2.121,2.121a1,1,0,0,1-1.415-1.414l2.122-2.121a1,1,0,0,1,1.414,1.414Zm1.326-9.811,2.121-2.121a1,1,0,0,1,1.414,1.414l-2.121,2.121a1,1,0,0,1-1.414-1.414Zm3.8,4.685-2.121,2.121a1,1,0,0,1-1.414-1.414L45.7,28.2a1,1,0,0,1,1.414,1.415ZM48.44,19.8l2.122-2.121A1,1,0,1,1,51.976,19.1l-2.122,2.122A1,1,0,0,1,48.44,19.8Zm3.8,4.685L50.12,26.608a1,1,0,1,1-1.415-1.414l2.122-2.121a1,1,0,0,1,1.414,1.414Zm3.005-3a1,1,0,0,1-1.414-1.414l2.121-2.122a1,1,0,0,1,1.414,1.414Z" fill="#595959"/><path d="M51.686,8.072l-2.362,2.361A1,1,0,0,1,47.91,9.019l2.181-2.181A30.988,30.988,0,0,0,6.838,50.091L9.019,47.91a1,1,0,0,1,1.414,1.414L8.072,51.686c.425.516.86,1.023,1.317,1.51L53.2,9.389C52.709,8.932,52.2,8.5,51.686,8.072ZM10.168,43.932,8.047,46.054A1,1,0,1,1,6.633,44.64l2.121-2.122a1,1,0,0,1,1.414,1.414Zm1.591-4.419,2.121-2.121A1,1,0,0,1,15.3,38.806l-2.122,2.121a1,1,0,0,1-1.414-1.414Zm3.8,4.685-2.122,2.121a1,1,0,0,1-1.414-1.414l2.122-2.122A1,1,0,1,1,15.56,44.2Zm1.326-9.812,2.121-2.121a1,1,0,0,1,1.414,1.414L18.3,35.8a1,1,0,1,1-1.414-1.415Zm3.8,4.685-2.121,2.121a1,1,0,0,1-1.414-1.414l2.121-2.121a1,1,0,0,1,1.414,1.414Zm1.326-9.811,2.121-2.121a1,1,0,0,1,1.415,1.414l-2.122,2.121a1,1,0,0,1-1.414-1.414Zm3.8,4.685-2.122,2.121a1,1,0,0,1-1.414-1.414L24.4,32.53a1,1,0,1,1,1.414,1.415Zm1.326-9.812,2.121-2.121a1,1,0,0,1,1.414,1.414l-2.121,2.122a1,1,0,0,1-1.414-1.415Zm3.8,4.685-2.121,2.121A1,1,0,0,1,27.4,29.525L29.525,27.4a1,1,0,0,1,1.414,1.414Zm1.326-9.811,2.121-2.121A1,1,0,1,1,35.8,18.3l-2.122,2.121a1,1,0,0,1-1.414-1.414Zm3.8,4.685-2.121,2.121A1,1,0,1,1,32.53,24.4l2.122-2.122a1,1,0,1,1,1.414,1.415Zm1.326-9.812,2.121-2.121a1,1,0,0,1,1.414,1.414L38.806,15.3a1,1,0,0,1-1.414-1.415Zm3.8,4.685-2.121,2.121a1,1,0,0,1-1.414-1.414l2.121-2.121a1,1,0,0,1,1.414,1.414Zm1.326-9.811L44.64,6.633a1,1,0,1,1,1.414,1.414l-2.122,2.121a1,1,0,0,1-1.414-1.414Zm3.8,4.684L44.2,15.56a1,1,0,1,1-1.415-1.414l2.122-2.122a1,1,0,0,1,1.414,1.414Z" fill="#595959"/></g></defs><g fi:class="KUsePattern"><pattern id="pattern_L1_5" width="350" height="350" patternUnits="userSpaceOnUse"><use xlink:href="#L1_5" x="-350" y="-350"/><use xlink:href="#L1_5" x="0" y="-350"/><use xlink:href="#L1_5" x="350" y="-350"/><use xlink:href="#L1_5" x="-350" y="0"/><use xlink:href="#L1_5" x="0" y="0"/><use xlink:href="#L1_5" x="350" y="0"/><use xlink:href="#L1_5" x="-350" y="350"/><use xlink:href="#L1_5" x="0" y="350"/><use xlink:href="#L1_5" x="350" y="350"/></pattern><rect x="0" y="0" width="100%" height="100%" fill="url(#pattern_L1_5)"/></g><g fi:class="KUsePattern"><pattern id="pattern_L1_6" width="350" height="350" patternUnits="userSpaceOnUse"><use xlink:href="#L1_6" x="-350" y="-350"/><use xlink:href="#L1_6" x="0" y="-350"/><use xlink:href="#L1_6" x="350" y="-350"/><use xlink:href="#L1_6" x="-350" y="0"/><use xlink:href="#L1_6" x="0" y="0"/><use xlink:href="#L1_6" x="350" y="0"/><use xlink:href="#L1_6" x="-350" y="350"/><use xlink:href="#L1_6" x="0" y="350"/><use xlink:href="#L1_6" x="350" y="350"/></pattern><rect x="0" y="0" width="100%" height="100%" fill="url(#pattern_L1_6)"/></g><g fi:class="KUsePattern"><pattern id="pattern_L1_15" width="350" height="350" patternUnits="userSpaceOnUse"><use xlink:href="#L1_15" x="-350" y="-350"/><use xlink:href="#L1_15" x="0" y="-350"/><use xlink:href="#L1_15" x="350" y="-350"/><use xlink:href="#L1_15" x="-350" y="0"/><use xlink:href="#L1_15" x="0" y="0"/><use xlink:href="#L1_15" x="350" y="0"/><use xlink:href="#L1_15" x="-350" y="350"/><use xlink:href="#L1_15" x="0" y="350"/><use xlink:href="#L1_15" x="350" y="350"/></pattern><rect x="0" y="0" width="100%" height="100%" fill="url(#pattern_L1_15)"/></g><g fi:class="KUsePattern"><pattern id="pattern_L1_16" width="350" height="350" patternUnits="userSpaceOnUse"><use xlink:href="#L1_16" x="-350" y="-350"/><use xlink:href="#L1_16" x="0" y="-350"/><use xlink:href="#L1_16" x="350" y="-350"/><use xlink:href="#L1_16" x="-350" y="0"/><use xlink:href="#L1_16" x="0" y="0"/><use xlink:href="#L1_16" x="350" y="0"/><use xlink:href="#L1_16" x="-350" y="350"/><use xlink:href="#L1_16" x="0" y="350"/><use xlink:href="#L1_16" x="350" y="350"/></pattern><rect x="0" y="0" width="100%" height="100%" fill="url(#pattern_L1_16)"/></g></svg>